<?xml version="1.0" encoding="utf-8"?>
<!-- Generator: Adobe Illustrator 26.5.1, SVG Export Plug-In . SVG Version: 6.00 Build 0)  -->
<svg version="1.1" id="Layer_1" xmlns="http://www.w3.org/2000/svg" xmlns:xlink="http://www.w3.org/1999/xlink" x="0px" y="0px"
	 viewBox="0 0 720 720" style="enable-background:new 0 0 720 720;" xml:space="preserve">
<style type="text/css">
	.st0{fill:none;stroke:#594C51;stroke-width:26.0699;stroke-miterlimit:10;}
	.st1{fill:#FAFFFE;}
	.st2{fill:#FAFFFE;stroke:#594C51;stroke-width:26.0699;stroke-miterlimit:10;}
</style>
<g>
	<g>
		<circle class="st0" cx="362.64" cy="283.33" r="21.8"/>
		<circle class="st1" cx="362.64" cy="283.33" r="21.8"/>
	</g>
	<path class="st2" d="M368.32,569.54l-97.96-59.51l124.28-203.43c3.47-5.83,5.74-11.3,6.81-16.41c2.21-10.61,0.19-20.56-6.06-29.86
		c-6.26-9.3-14.79-15.08-25.59-17.34c-10.81-2.26-20.8-0.29-29.98,5.88c-9.19,6.18-14.93,14.77-17.22,25.77
		c-2.34,11.2-0.53,21.41,5.44,30.65c5.96,9.24,14.44,15.01,25.44,17.31c2.36,0.49,6.17,0.88,11.44,1.16l-71.85,105.53
		c-38.02-27.01-63.78-54.11-77.26-81.32c-13.49-27.21-16.57-58.3-9.27-93.26c9.07-43.41,31.6-76.93,67.59-100.58
		c36-23.64,75.6-30.95,118.81-21.92c40.85,8.53,73.42,30.97,97.71,67.3c24.29,36.34,32.25,74.54,23.88,114.61
		c-3.9,18.66-17.14,46.23-39.72,82.72L368.32,569.54z"/>
</g>
</svg>
